# xmcd
#
# Track frame offsets: 
#        150
#        10969
#        19810
#        29679
#        41664
#        53904
#        65023
#        76899
#        89645
#        100450
#        111247
#        122336
#        134394
#        142992
#        151487
#        160722
#        170341
#        182719
#        195128
#        208367
#        217405
#        230125
#        241737
#        253887
#        267079
#        279648
#        291263
#        301360
#
# Disc length: 4175 seconds
#
# Revision: 4
# Processed by: cddbd v1.5.2PL0 Copyright (c) Steve Scherf et al.
# Submitted via: ExactAudioCopyFreeDBPlugin 1.0
#
DISCID=a3104d1c
DTITLE=Various Artist - The Complete Goldwax Singles, 1962-1970
DYEAR=2009
DGENRE=Rhythm and Blues
TTITLE0=James Carr - You've Got My Mind Messed Up
TTITLE1=James Carr - That's What I Want to Know
TTITLE2=The Yo Yo's - Leaning on You
TTITLE3=The Yo Yo's - I Can't Forget You
TTITLE4=Leroy Daniel - Hello Daughter
TTITLE5=Leroy Daniel - Gonna Comb You Out of My Hair
TTITLE6=Oboe (Osbie McClinton) - Trying to Make It
TTITLE7=Oboe (Osbie McClinton) - I'm Just That Kind of Fool for You
TTITLE8=Gene "Bowlegs" Miller - Here it is Now
TTITLE9=Gene "Bowlegs" Miller - What Time Ye Got
TTITLE10=The Ovations - I Believe I'll Go Back Home
TTITLE11=The Ovations - Qualifications
TTITLE12=Ivory Joe Hunter - Every Little Bit Helped Me
TTITLE13=Ivory Joe Hunter - I Can Make You Happy
TTITLE14=Jeanne Newman - Little Things
TTITLE15=Jeanne Newman - Ain't That Lonely
TTITLE16=Spencer Wiggins - Take Me Just as I Am
TTITLE17=Spencer Wiggins - The Kind of Woman That's Got No Heart
TTITLE18=James Carr - Love Attack
TTITLE19=James Carr - Coming Back to Me Baby
TTITLE20=The Yo Yo's - Gotta Find a New Love
TTITLE21=The Yo Yo's - I've Got Something in My Life
TTITLE22=James Carr - Pouring Water on a Drowning Man
TTITLE23=James Carr - Forgetting You
TTITLE24=Spencer Wiggins - Old Friend (You Asked Me If I Miss Her)
TTITLE25=Spencer Wiggins - Walking Out on You
TTITLE26=George and Greer - You Didn't Know It But You Had Me
TTITLE27=George and Greer - Good Times
EXTD=YEAR: 2009
EXTT0=
EXTT1=
EXTT2=
EXTT3=
EXTT4=
EXTT5=
EXTT6=
EXTT7=
EXTT8=
EXTT9=
EXTT10=
EXTT11=
EXTT12=
EXTT13=
EXTT14=
EXTT15=
EXTT16=
EXTT17=
EXTT18=
EXTT19=
EXTT20=
EXTT21=
EXTT22=
EXTT23=
EXTT24=
EXTT25=
EXTT26=
EXTT27=
PLAYORDER=
